<svg width="64" height="70" viewBox="0 0 64 70" fill="none" xmlns="http://www.w3.org/2000/svg">
<path d="M45.2546 0.235161C45.0841 0.508598 44.871 1.23594 44.7573 1.94141C44.7076 2.20937 44.6437 2.625 44.6011 2.86016C44.4377 3.82265 43.2088 7.29531 42.5127 8.77188C41.9374 9.99141 41.1418 11.2438 40.95 11.2219C40.9074 11.2164 40.8648 10.582 40.8364 9.53203C40.7582 6.59531 40.5664 5.61094 39.8561 4.47344C39.4015 3.74062 39.0464 3.68594 38.8404 4.32031C38.8048 4.42422 38.7338 5.51797 38.677 6.74297C38.5278 9.9586 38.4 10.5492 37.3984 12.5289C36.9367 13.4477 36.3684 14.3281 36.2477 14.3281C36.1767 14.3281 36.1553 14.2078 36.1553 13.8469C36.1482 12.7258 35.9209 10.9703 35.7149 10.5547C35.5303 10.1719 35.0188 9.80547 34.7702 9.87656C34.55 9.94219 34.5074 10.1938 34.4861 11.5391C34.4577 12.7969 34.3511 13.7867 34.1664 14.4047C33.8681 15.4219 33.1791 16.6688 32.2557 17.8391C31.3607 18.982 28.1784 22.6133 28.079 22.6133C28.0222 22.6133 27.873 22.4273 27.7309 22.1813C27.4113 21.607 27.0916 21.2297 26.843 21.1313C26.637 21.0547 26.637 21.0492 26.6797 20.6555C26.7365 20.1414 26.5944 19.7422 26.2393 19.425C25.9906 19.1953 25.9835 19.1844 26.0617 18.9492C26.1895 18.5555 26.1611 18.0578 25.9977 17.8555C25.7633 17.5656 25.2732 17.4562 24.6126 17.5492C24.3782 17.582 24.1722 17.593 24.1367 17.5656C24.1083 17.5438 24.158 17.3523 24.2575 17.1445C24.6908 16.1766 24.57 15.5859 23.9307 15.5859C23.6892 15.5859 23.0499 15.7664 22.6379 15.9469C22.3112 16.0891 22.1265 16.1164 22.1833 16.007C22.6947 15.1156 22.78 14.7328 22.6237 13.9508C22.4888 13.2617 22.3893 13.125 21.9986 13.125C21.5298 13.125 20.7556 13.6281 19.8393 14.5305C19.2852 15.0828 19.2426 15.0609 19.4557 14.3117C19.8748 12.8242 19.8961 11.9766 19.5196 11.7414C19.3349 11.6266 18.9869 11.643 18.7169 11.7797C18.4399 11.9219 15.2719 14.9898 15.1511 15.2414C15.1298 15.2797 15.073 15.3125 15.0233 15.3125C14.9309 15.3125 14.8812 14.7984 14.8031 12.8789C14.7604 11.8344 14.732 11.6648 14.5189 11.0031C14.249 10.15 13.9365 9.59766 13.6808 9.51016C13.3398 9.38984 13.148 9.625 12.8568 10.5219C12.4164 11.8836 11.6279 14.0328 11.5356 14.1039C11.4575 14.175 11.4361 14.175 11.4077 14.1039C10.7826 12.7859 10.4275 11.8344 10.2783 11.0742C9.96578 9.52656 9.1347 8.68438 7.99108 8.76094C7.60041 8.78281 7.50806 8.93047 7.56489 9.43359C7.61461 9.84375 7.60751 13.6281 7.55779 13.6664C7.48675 13.7266 7.28076 13.4586 6.45679 12.2227C5.68254 11.0523 5.54047 10.8719 5.14979 10.5766C4.38975 9.99688 3.75756 9.86016 3.34558 10.1773C3.21062 10.2758 3.12538 10.4016 3.12538 10.4836C3.12538 10.5602 3.33847 11.1453 3.59419 11.7797C4.04169 12.8953 4.38265 14.093 4.269 14.1805C4.23348 14.2023 4.03459 14.093 3.82149 13.9289C3.15379 13.4313 2.38664 13.1523 1.49164 13.0922C1.11517 13.0648 1.00862 13.0758 0.930482 13.1469C0.823934 13.2453 0.873657 13.3164 1.60529 14.0273C2.05989 14.4703 2.71339 15.4602 2.86966 15.9469C2.99752 16.3242 3.01883 17.0406 2.91228 17.0898C2.87676 17.1063 2.62815 16.9969 2.36533 16.8383C1.76156 16.4828 1.39929 16.3516 0.994411 16.3516C0.63925 16.3516 0.269883 16.4938 0.142025 16.6797C0.070993 16.7781 0.134922 16.8492 0.674767 17.2977C2.09541 18.4734 2.94069 19.6164 3.77177 21.4922C3.96356 21.9297 4.31161 22.5695 4.53892 22.9141C5.00063 23.6031 5.25634 24.1336 5.25634 24.3906C5.25634 24.5164 5.21372 24.5711 5.07876 24.6094C4.97932 24.6367 4.90118 24.7023 4.90118 24.7516C4.90118 24.8609 5.71805 26.4961 6.13714 27.2344C7.17421 29.0445 8.34624 29.8484 11.4646 30.893C12.1536 31.1281 12.5371 31.3852 12.459 31.5656C12.4306 31.6367 12.388 31.9375 12.3667 32.2383L12.324 32.7852L11.223 33.2117L10.1149 33.6437L8.99974 33.7148C7.78509 33.7969 7.10318 33.9227 6.22948 34.218C3.73625 35.0602 1.61239 36.7938 0.930482 38.5328C0.554012 39.4898 0.454567 41.0211 0.710283 41.918C0.88076 42.5195 1.34247 43.2633 1.83969 43.7391C2.03858 43.925 2.20196 44.1219 2.20196 44.1766C2.20196 44.2258 2.15224 44.4445 2.09541 44.6523C1.88231 45.4125 1.81838 46.282 1.91073 47.0422C2.00307 47.7531 2.2872 48.8687 2.40795 48.9617C2.44347 48.9891 2.63525 48.6172 2.86966 48.0977C3.26034 47.1953 4.11272 45.7461 4.45368 45.4016C4.74491 45.1008 5.32737 44.8602 6.52072 44.5484C7.79219 44.2148 8.0408 44.1273 8.58775 43.8102C8.85057 43.657 9.04946 43.5859 9.19863 43.5859C9.31938 43.5859 9.68165 43.5367 9.99419 43.4766L10.5696 43.3617L11.0171 43.5531C11.2657 43.657 11.6492 43.7828 11.8623 43.832C12.3525 43.9414 13.4961 44.0781 13.9436 44.0781C14.2561 44.0781 14.3272 44.1055 15.002 44.5211C16.1314 45.2156 17.5733 45.9375 19.3562 46.7031C21.8779 47.7914 22.9363 48.218 23.2559 48.2891C23.4477 48.3273 23.7034 48.4312 23.8242 48.5078C23.9449 48.5898 24.1651 48.6883 24.3214 48.7266C24.6908 48.8195 25.0672 49.0875 25.5715 49.6234C26.1185 50.2031 26.3387 50.3617 26.7933 50.482C27.1272 50.5641 27.1769 50.5969 27.2337 50.7773C27.2834 50.9086 27.2763 51.007 27.2337 51.0672C27.1911 51.1164 26.4879 51.4609 25.671 51.8328C21.7713 53.5938 20.5638 54.1133 19.3917 54.5344C18.7525 54.7641 18.7098 54.7914 18.6246 54.9938C18.5465 55.1961 18.3263 56.8313 18.3263 57.2359C18.3263 57.3453 18.4754 57.6734 18.6956 58.0398C18.8945 58.3734 19.1787 58.9148 19.3207 59.2375C19.4628 59.5602 19.6404 59.8883 19.7114 59.9648C19.9032 60.1562 20.3223 60.2602 20.9118 60.2656C21.3735 60.2656 21.4233 60.2766 21.7642 60.4789C22.4177 60.8672 22.8794 60.9164 23.3482 60.6539C23.8668 60.3641 24.087 60.025 23.9804 59.6914C23.9378 59.5602 23.9094 59.5547 23.4406 59.5547C22.9789 59.5547 22.9292 59.5437 22.6805 59.3688C22.3609 59.15 22.027 59.0188 21.3096 58.8219C20.649 58.6359 20.5993 58.6031 20.5993 58.357C20.5993 58.2477 20.5283 57.9742 20.4501 57.75C20.2583 57.225 20.237 56.782 20.4004 56.5906L20.5212 56.4484L20.9616 56.5523C21.2954 56.6344 21.608 56.6562 22.368 56.6562C23.0073 56.6562 23.4619 56.6836 23.6821 56.7328C24.3001 56.875 24.7263 56.6836 25.3656 55.9672C25.7633 55.5242 25.7775 55.5188 26.637 55.4914C27.0419 55.4805 27.0987 55.4641 27.1201 55.3711C27.1343 55.3055 27.0561 55.1961 26.9212 55.0977C26.7223 54.95 26.6512 54.9336 26.2606 54.9391C25.806 54.9445 25.2448 55.0922 24.9678 55.2836C24.8896 55.3383 24.5842 55.475 24.2788 55.5898C23.7886 55.7758 23.7176 55.7867 23.5045 55.732C23.3838 55.6992 22.922 55.6719 22.4888 55.6719C21.8566 55.6719 21.6506 55.65 21.4517 55.568C21.0823 55.4203 21.0965 55.2891 21.5014 55.1195C21.6932 55.0375 22.5314 54.682 23.3696 54.3211C26.0119 53.1836 27.6599 52.5109 27.9511 52.4508C28.5549 52.325 28.9456 52.0352 29.1587 51.543C29.2297 51.368 29.3007 50.925 29.3434 50.2906C29.386 49.7492 29.4428 49.268 29.4783 49.2133C29.528 49.1477 29.6843 49.1148 30.0466 49.0875C30.7498 49.0328 31.176 48.9234 31.6661 48.6719C31.9218 48.5406 32.1704 48.4531 32.3054 48.4531C32.5611 48.4531 32.966 48.3492 33.6905 48.0867C34.0528 47.9555 34.2659 47.9062 34.3085 47.9391C34.4151 48.0211 34.1949 48.8305 33.9036 49.4375C33.5911 50.0828 33.3567 50.4438 32.3551 51.8164C31.9147 52.418 31.4459 53.0688 31.3038 53.2656C31.1689 53.4625 30.6503 54.0805 30.1673 54.6438C29.1729 55.7867 28.8816 56.2789 28.7538 57.0172L28.6757 57.482L28.9101 57.7336C29.2439 58.0891 29.2581 58.3461 28.9882 59.1227C28.7254 59.8773 28.7183 60.107 28.9314 60.4242C29.0663 60.6266 29.1374 60.6758 29.4783 60.7578C29.9471 60.8781 30.0608 60.982 30.2597 61.4578C30.5864 62.218 30.9203 62.4805 31.5809 62.4805C31.7869 62.4805 31.9929 62.4531 32.0355 62.4203C32.142 62.3383 31.9644 62.0156 31.6519 61.7203C31.3678 61.4469 31.1192 60.9492 31.2186 60.8453C31.5169 60.5391 31.5596 60.457 31.5951 60.1289C31.6093 59.932 31.6519 59.7734 31.6803 59.7734C31.7087 59.7734 31.8224 59.8609 31.9218 59.9648C32.2912 60.3367 32.9873 60.4789 33.4632 60.2875C33.6408 60.2164 33.6763 60.1781 33.655 60.0305C33.6408 59.8883 33.6053 59.8555 33.4561 59.85C33.1365 59.8391 33.1081 59.8281 33.0299 59.7188C32.9802 59.6477 32.9802 59.5437 33.037 59.3797C33.0868 59.2375 33.101 59.0516 33.0725 58.9258C33.0015 58.6523 32.5895 58.3297 32.206 58.2477C31.9218 58.1875 31.6306 57.9961 31.4743 57.7664C31.3678 57.6023 31.3749 57.1539 31.5027 56.607C31.6164 56.1039 31.659 56.0437 32.1278 55.6445L32.4475 55.3711L32.9021 55.5625C33.3496 55.7484 33.3567 55.7484 34.5216 55.7867C35.168 55.8086 35.7647 55.8414 35.8428 55.8633C36.0275 55.907 36.3329 55.7922 36.5744 55.6008C36.6952 55.4969 36.7378 55.3984 36.7378 55.2453C36.7307 54.9391 36.9225 54.8242 37.6044 54.7148C37.9951 54.6547 38.3218 54.6328 38.6344 54.6602C39.1387 54.6984 39.4939 54.6328 39.4939 54.5016C39.4939 54.4578 39.3589 54.332 39.1955 54.2281C38.9185 54.0422 38.8759 54.0312 38.3858 54.0312C37.8388 54.0312 37.3842 54.1242 35.9067 54.5289C35.2816 54.6984 34.9123 54.7695 34.5145 54.7859C34.0173 54.8078 33.9533 54.7969 33.5556 54.6328C32.9944 54.3922 32.8879 54.3156 32.8879 54.1516C32.8879 53.7906 36.3187 49.2188 36.5957 49.2188C36.9864 49.2188 37.5547 49.9023 37.7536 50.6242C37.8459 50.9633 39.1387 53.632 39.6075 54.4578C39.6643 54.5617 40.0337 55.2727 40.4244 56.0437C43.0455 61.1844 44.4235 64.0609 44.9349 65.45C45.077 65.8328 45.3043 66.3141 45.4464 66.5219C45.9365 67.2383 46.732 67.7523 47.4992 67.8453C47.762 67.8781 47.8259 67.9109 47.9964 68.1352C48.2592 68.4797 48.8417 68.95 49.1897 69.0867C49.3957 69.1742 49.6088 69.2016 49.9711 69.207H50.4683L50.8093 69.4695C51.3349 69.8797 52.1518 70.1039 52.5496 69.9508C53.338 69.65 53.4872 69.6172 53.6932 69.6937C54.0412 69.8359 54.6521 70 54.8155 70C55.0783 70 55.7815 69.732 56.0515 69.5297C56.3001 69.3438 56.3356 69.3328 56.8683 69.3219C57.5644 69.3109 57.7775 69.2289 58.3671 68.7641L58.8004 68.4141L59.1485 68.5344C59.39 68.6164 59.6386 68.6492 60.0222 68.6547C60.4839 68.6602 60.6046 68.6383 60.9314 68.5016C61.1445 68.4086 61.4428 68.2172 61.5991 68.075C61.8548 67.8344 61.9116 67.8125 62.1957 67.8125C62.6219 67.8125 63.247 67.6211 63.4601 67.4242C63.6803 67.2219 63.8082 66.8828 63.7513 66.6477C63.7229 66.5273 63.7513 66.3852 63.8508 66.2102C64.0284 65.893 64.0355 65.6305 63.8863 65.2969C63.8011 65.1273 63.7656 64.832 63.7513 64.3398C63.7371 63.5359 63.6093 63.1805 63.1831 62.7648C63.0481 62.6391 62.8279 62.3766 62.6788 62.1797C60.1713 58.7891 57.1809 55.6773 54.0199 53.1562C52.7769 52.1719 49.3744 49.3172 47.6839 47.8516C46.249 46.5992 42.9815 42.6508 42.5767 41.6719C42.3209 41.0484 40.9429 39.0961 40.3178 38.4672C40.1758 38.325 40.0621 38.1883 40.0621 38.1555C40.0621 38.0406 42.7897 38.2484 43.4077 38.4125C44.0328 38.582 44.5798 38.4891 44.9491 38.1445C45.1267 37.9805 45.1764 37.9641 45.6452 37.9422C46.2419 37.9203 46.5971 37.7617 46.9309 37.3898C47.1653 37.1219 47.2293 37.0781 47.3997 37.0781C47.8543 37.0781 48.3089 36.6844 48.4084 36.225C48.4439 36.0445 48.5291 35.9516 48.8772 35.7164C49.3318 35.4102 49.5591 35.1203 49.6373 34.7648C49.687 34.5625 49.7296 34.5297 50.0705 34.393C50.8519 34.0812 51.1929 33.6766 51.1076 33.168L51.065 32.8836L51.5125 32.6594C52.1518 32.3531 52.7414 31.9211 52.926 31.6313C53.0539 31.418 53.0752 31.325 53.0326 31.0023L52.99 30.6305L53.2102 30.543C53.5582 30.4008 53.9986 30.0672 54.1336 29.832C54.3041 29.5477 54.297 29.2359 54.1265 28.9352C54.0484 28.8039 53.9844 28.6672 53.9844 28.6344C53.9844 28.5961 54.1336 28.4813 54.3112 28.3773C54.9576 28.0055 55.4761 27.3164 55.4761 26.8242C55.4761 26.7258 55.4335 26.5398 55.3767 26.4031C55.3269 26.2664 55.2985 26.1297 55.3269 26.1023C55.3482 26.075 55.5969 25.9383 55.8668 25.8016C56.8399 25.3203 57.394 24.8391 57.4934 24.3852C57.5573 24.1117 57.4437 23.9148 57.0601 23.6195L56.7405 23.3625L57.3442 23.0563C58.3103 22.5695 58.7081 22.1375 58.7081 21.6016C58.701 21.3773 58.6512 21.2297 58.5092 21.0328L58.3174 20.7703L59.0277 20.1906C59.8943 19.4742 60.2637 19.1023 60.5265 18.6758C60.7893 18.2547 60.7893 18.0852 60.5265 17.8773C60.3418 17.7352 60.2708 17.7188 59.8872 17.7188C59.184 17.7188 59.1414 17.7844 60.8745 16.3352C61.5138 15.8047 61.6488 15.657 61.8193 15.3234C62.2384 14.4703 62.2313 14.0383 61.7838 13.8578C61.2936 13.6609 60.3915 13.8688 58.637 14.5742C58.0048 14.8312 57.4579 15.0391 57.4366 15.0391C57.3229 15.0391 57.4295 14.8914 57.8628 14.4539C58.8004 13.4969 59.6031 12.3703 60.1855 11.2109C60.5549 10.4672 60.6614 10.1281 60.6614 9.65234C60.6614 9.3625 60.633 9.275 60.5123 9.18203C60.1358 8.89219 59.5391 9.21484 57.5005 10.7953C54.9007 12.8188 53.8424 13.5625 53.8424 13.3766C53.8424 13.3711 54.0981 12.9555 54.4035 12.4633C55.8952 10.0789 57.0104 7.28984 57.0956 5.73125C57.1311 4.99297 57.0956 4.8125 56.8967 4.8125C56.7263 4.8125 56.5416 4.99844 55.9307 5.79688C54.8084 7.26797 53.1604 9.15469 52.1802 10.0953C51.5409 10.7133 50.7454 11.3531 50.6814 11.3094C50.653 11.2875 50.7596 10.8828 50.9229 10.407C52.0168 7.19141 52.4927 4.85078 52.4927 2.70703C52.4927 1.30703 52.2654 0.519531 51.8535 0.519531C51.6048 0.519531 51.3988 0.86953 51.2142 1.61328C50.7951 3.31406 49.9356 5.18438 48.7067 7.06562C48.1669 7.89141 47.8259 8.3125 46.7747 9.47187C46.0714 10.2484 45.4677 10.8828 45.4321 10.8828C45.354 10.8828 45.3824 10.7352 45.766 9.29688C46.2206 7.59063 46.3769 6.71016 46.455 5.3211C46.5829 3.11172 46.526 1.19219 46.3058 0.541405C46.2206 0.278908 45.8512 0 45.5955 0C45.4393 0 45.3753 0.0437546 45.2546 0.235161Z" fill="#F8F9FA"/>
</svg>
